<?xml version="1.0" standalone="no"?>
<!DOCTYPE svg PUBLIC "-//W3C//DTD SVG 20010904//EN"
 "http://www.w3.org/TR/2001/REC-SVG-20010904/DTD/svg10.dtd">
<svg version="1.0" xmlns="http://www.w3.org/2000/svg"
 width="1024.000000pt" height="1024.000000pt" viewBox="0 0 1024.000000 1024.000000"
 preserveAspectRatio="xMidYMid meet">
<metadata>
Created by potrace 1.14, written by Peter Selinger 2001-2017
</metadata>
<g transform="translate(0.000000,1024.000000) scale(0.100000,-0.100000)"
fill="#000000" stroke="none">
<path d="M6172 9118 c-164 -23 -358 -62 -491 -100 -58 -16 -110 -31 -116 -32
-97 -22 -435 -145 -645 -236 -140 -59 -471 -221 -595 -290 -362 -200 -740
-440 -1015 -644 -159 -118 -180 -136 -159 -137 8 0 4 -4 -8 -9 -30 -12 -29
-17 10 -97 84 -171 212 -343 388 -518 106 -106 109 -110 110 -154 0 -25 2 -55
4 -66 2 -11 7 -39 10 -62 3 -24 10 -43 14 -43 4 0 8 -6 8 -12 0 -27 15 -173
18 -178 1 -3 6 -34 9 -70 4 -36 9 -74 12 -85 2 -11 6 -36 8 -55 7 -54 33 -188
50 -263 9 -37 18 -79 21 -95 2 -15 16 -67 31 -117 27 -94 30 -135 13 -166 -19
-37 -18 -148 2 -228 39 -154 121 -279 251 -385 26 -21 62 -64 80 -95 129 -228
293 -435 489 -616 71 -66 221 -176 319 -235 l92 -54 -6 -71 c-5 -59 -3 -75 14
-102 25 -42 55 -60 110 -68 151 -22 217 19 222 137 2 45 13 61 88 121 195 155
410 466 545 787 15 36 35 83 44 105 10 22 23 54 30 71 7 18 33 46 59 65 26 18
82 62 126 98 91 77 184 208 273 385 30 61 57 112 58 114 2 2 20 -4 40 -12 53
-22 137 -20 185 4 52 27 107 87 152 168 l37 67 178 2 c98 1 222 2 276 2 l97 1
0 46 c0 160 -132 785 -254 1204 -66 227 -202 633 -236 705 -5 11 -29 70 -54
130 -183 450 -405 823 -623 1048 -65 66 -51 65 -271 35z m-2248 -2718 c0 -190
-3 -356 -7 -370 -3 -14 -6 -41 -7 -60 l-2 -35 -14 45 c-16 51 -56 246 -75 360
-6 41 -13 83 -15 94 -2 10 -6 44 -9 75 -3 31 -8 65 -10 77 -3 11 -7 50 -10 87
l-6 66 43 4 c24 2 59 4 78 3 l35 -1 -1 -345z m2059 -1472 c-128 -288 -274
-519 -430 -677 l-105 -106 -18 35 c-30 58 -50 70 -142 82 -77 10 -88 9 -124
-8 -23 -11 -46 -32 -55 -51 l-16 -32 -39 21 c-247 132 -532 413 -726 715 l-26
41 54 -24 c105 -46 274 -94 389 -110 22 -3 65 -9 95 -14 138 -20 454 -18 560
4 13 3 42 8 65 12 141 20 385 103 520 177 17 9 31 16 32 17 1 0 -14 -37 -34
-82z"/>
<path d="M9805 4135 c-217 -50 -297 -259 -155 -405 69 -71 201 -107 297 -81
61 17 134 70 166 122 94 153 -9 336 -205 367 -35 5 -71 4 -103 -3z"/>
<path d="M185 4130 c-73 -11 -117 -20 -125 -25 -4 -3 -8 -123 -9 -267 -3 -289
-6 -424 -16 -568 -4 -52 -8 -192 -10 -310 -3 -180 -14 -815 -19 -1050 l-1 -65
55 -22 c73 -29 97 -33 205 -39 57 -4 114 0 155 8 l65 14 2 89 c1 50 4 214 6
365 3 151 5 277 6 279 0 2 22 -25 48 -60 25 -35 49 -66 52 -69 4 -3 26 -30 51
-60 103 -126 251 -278 389 -401 47 -40 107 -95 135 -121 28 -26 56 -47 61 -47
28 0 124 113 160 187 25 53 65 175 65 201 0 10 -69 74 -162 151 -174 144 -630
590 -671 657 -4 7 35 39 105 85 62 41 120 81 128 89 8 8 73 62 144 119 70 58
141 116 156 130 15 14 51 45 80 70 29 25 58 50 64 55 6 6 36 30 66 55 73 60
80 67 80 80 0 20 -78 126 -137 187 -55 56 -149 133 -162 133 -5 0 -46 -37
-156 -139 -86 -80 -293 -241 -463 -360 l-32 -23 5 49 c2 26 7 91 10 143 3 52
8 145 12 205 4 61 7 143 8 184 0 74 0 74 -30 83 -41 12 -258 17 -320 8z"/>
<path d="M7178 3675 c-1 -1 -25 -5 -53 -8 -67 -7 -206 -49 -285 -85 -36 -17
-114 -51 -175 -77 -60 -26 -113 -50 -117 -54 -4 -4 8 -54 26 -111 39 -120 76
-245 82 -275 2 -11 6 -29 8 -40 14 -58 36 -164 40 -190 9 -55 18 -120 21 -155
4 -34 11 -95 20 -175 3 -22 7 -67 10 -100 6 -69 14 -156 20 -200 2 -16 6 -66
10 -110 3 -44 8 -93 10 -110 2 -16 7 -66 10 -110 3 -44 8 -93 10 -110 2 -16 7
-75 11 -130 3 -55 8 -107 9 -115 1 -11 14 -15 46 -14 61 1 229 15 243 19 6 2
29 7 51 10 256 37 463 134 619 291 239 241 279 538 106 789 -61 88 -180 184
-277 224 -18 7 -33 17 -33 21 0 5 16 36 35 69 54 96 87 212 87 306 0 89 -2
101 -28 165 -51 128 -168 226 -309 259 -48 11 -189 23 -197 16z m32 -397 c81
-41 113 -145 80 -264 -11 -40 -29 -64 -97 -132 -45 -46 -87 -81 -92 -78 -5 3
-12 27 -16 53 -9 54 -9 53 -24 125 -7 29 -14 67 -17 83 -2 17 -13 67 -23 113
l-18 84 26 10 c26 10 94 25 121 27 9 1 36 -9 60 -21z m190 -820 c19 -13 45
-43 58 -68 19 -37 23 -56 19 -110 -4 -63 -39 -153 -72 -186 -18 -19 -156 -106
-160 -102 -2 2 -6 30 -10 63 -3 33 -8 67 -10 75 -2 8 -7 40 -10 70 -3 30 -8
66 -10 80 -2 14 -7 54 -10 90 -4 36 -8 69 -8 75 -3 14 59 32 122 34 45 1 64
-3 91 -21z"/>
<path d="M8619 3664 c-111 -17 -178 -39 -276 -90 -133 -68 -127 -61 -129 -160
-3 -94 19 -192 62 -280 38 -81 44 -82 111 -30 32 25 61 46 66 46 4 0 24 11 45
24 40 27 83 43 202 75 97 27 107 27 125 -8 20 -39 38 -251 23 -267 -3 -2 -25
0 -49 5 -43 10 -235 8 -274 -2 -105 -29 -184 -74 -254 -146 -148 -152 -214
-348 -186 -547 4 -27 11 -53 15 -59 4 -5 10 -22 13 -36 19 -78 149 -195 262
-233 70 -24 198 -44 253 -39 65 5 101 16 204 62 50 22 73 27 64 13 -7 -12 31
-159 52 -202 l17 -35 68 2 c150 3 319 91 401 209 14 19 14 23 -4 39 -22 20
-57 107 -66 162 -3 20 -8 45 -12 57 -3 11 -6 230 -7 486 0 256 -4 488 -9 515
-21 132 -68 228 -148 300 -134 121 -350 174 -569 139z m143 -1003 c14 -5 41
-23 61 -40 l34 -31 2 -111 c1 -138 -14 -170 -96 -205 -116 -50 -172 -11 -178
124 -4 105 38 246 81 270 19 10 58 7 96 -7z"/>
<path d="M5107 3494 c-42 -8 -103 -23 -135 -34 -31 -11 -61 -22 -67 -24 -27
-8 -56 -23 -115 -59 -36 -22 -67 -41 -69 -43 -2 -2 -5 -37 -7 -79 -4 -117 43
-286 98 -344 l20 -23 27 24 c72 64 177 120 286 153 50 14 102 30 117 35 58 18
86 -40 88 -185 2 -119 3 -114 -22 -109 -147 30 -312 13 -427 -46 -94 -47 -189
-148 -244 -259 -198 -394 4 -743 434 -752 73 -1 116 9 220 51 40 17 76 27 79
23 4 -5 13 -37 19 -73 7 -36 23 -88 36 -116 l23 -52 63 4 c153 9 307 85 391
193 l26 35 -22 30 c-70 95 -80 183 -81 721 0 464 -3 509 -37 610 -26 77 -30
83 -73 135 -71 85 -185 149 -320 181 -74 17 -219 18 -308 3z m168 -1008 c17
-9 42 -26 57 -38 27 -22 28 -26 29 -134 2 -139 -9 -163 -87 -203 -46 -23 -101
-31 -132 -20 -31 12 -51 64 -55 142 -6 100 37 241 80 266 22 13 68 7 108 -13z"/>
<path d="M9878 3425 c-2 -2 -23 -6 -48 -10 -25 -3 -61 -10 -80 -15 -19 -5 -47
-11 -62 -14 -51 -9 -52 -12 -32 -160 2 -22 7 -65 9 -95 3 -31 8 -85 11 -121 4
-36 8 -81 9 -100 2 -19 5 -60 8 -90 3 -30 9 -91 12 -135 4 -44 8 -96 10 -115
2 -20 6 -78 10 -130 4 -52 8 -117 10 -145 2 -27 7 -106 11 -175 3 -69 10 -129
16 -135 15 -17 139 -33 228 -30 89 3 98 4 194 24 l58 13 -7 126 c-3 70 -8 150
-10 177 -6 74 -16 203 -20 260 -2 27 -6 74 -9 105 -3 30 -8 84 -11 120 -3 36
-8 88 -10 116 -3 28 -7 80 -10 115 -2 35 -7 96 -11 134 -3 39 -8 84 -9 100 -7
81 -18 170 -21 174 -5 5 -241 10 -246 6z"/>
<path d="M1595 3290 c-3 -4 -7 -38 -10 -76 -7 -96 -15 -190 -21 -249 -28 -249
-37 -541 -21 -650 39 -259 200 -406 445 -405 124 1 286 56 377 129 l39 32 23
-118 c12 -65 22 -128 23 -139 0 -17 5 -21 28 -19 15 2 65 6 112 10 110 8 202
27 267 57 57 25 60 31 43 103 -5 22 -12 63 -15 91 -3 28 -7 59 -9 70 -2 10 -7
48 -11 84 -4 36 -9 79 -11 95 -17 142 -22 190 -29 305 -7 92 -7 338 -1 384 3
24 -1 30 -31 42 -42 18 -135 42 -188 49 -34 4 -194 -16 -247 -31 -16 -5 -17
-20 -15 -157 5 -222 -33 -390 -106 -465 -46 -48 -120 -85 -139 -69 -42 35 -65
122 -62 237 2 70 14 299 19 365 2 28 7 102 11 166 l6 116 -33 6 c-19 4 -51 9
-73 13 -21 3 -48 8 -60 10 -24 5 -150 14 -244 18 -34 2 -65 0 -67 -4z"/>
<path d="M4131 3263 c-10 -21 -58 -123 -106 -228 -48 -104 -99 -215 -113 -245
-14 -30 -58 -128 -97 -218 l-73 -163 -20 28 c-30 42 -108 191 -132 253 -35 87
-81 269 -96 375 -14 105 -11 101 -76 109 -29 4 -71 10 -93 13 -102 15 -234 5
-305 -23 l-42 -17 6 -86 c3 -47 8 -96 10 -107 3 -12 7 -39 10 -60 56 -353 236
-669 508 -888 l47 -38 -51 -101 c-28 -56 -82 -158 -121 -226 -60 -107 -152
-291 -170 -342 -7 -22 53 -82 121 -120 55 -30 172 -63 257 -73 l50 -5 89 202
c94 212 109 245 263 577 19 41 61 131 93 200 32 69 76 163 98 210 22 47 90
193 152 325 62 132 139 296 171 364 33 68 59 125 59 127 0 1 -17 19 -37 38
-64 61 -204 124 -310 142 -15 2 -38 6 -50 9 -18 4 -26 -2 -42 -32z"/>
</g>
</svg>
