<?xml version="1.0" standalone="no"?>
<!DOCTYPE svg PUBLIC "-//W3C//DTD SVG 20010904//EN"
 "http://www.w3.org/TR/2001/REC-SVG-20010904/DTD/svg10.dtd">
<svg version="1.0" xmlns="http://www.w3.org/2000/svg"
 width="2650.000000pt" height="2650.000000pt" viewBox="0 0 2650.000000 2650.000000"
 preserveAspectRatio="xMidYMid meet">
<metadata>
Created by potrace 1.14, written by Peter Selinger 2001-2017
</metadata>
<g transform="translate(0.000000,2650.000000) scale(0.100000,-0.100000)"
fill="#000000" stroke="none">
<path d="M18590 25017 c-3 -3 -54 -7 -115 -11 -60 -4 -128 -9 -150 -11 -48 -5
-149 -15 -225 -21 -61 -5 -491 -53 -530 -59 -14 -2 -47 -6 -75 -10 -210 -25
-776 -114 -990 -155 -55 -10 -113 -21 -130 -24 -16 -3 -88 -17 -160 -32 -71
-14 -150 -29 -175 -34 -111 -20 -659 -145 -895 -205 -143 -36 -267 -67 -275
-69 -311 -78 -1042 -294 -1495 -443 -434 -142 -1162 -400 -1310 -463 -11 -5
-96 -38 -190 -74 -93 -35 -244 -95 -335 -131 -91 -37 -183 -74 -205 -82 -22
-8 -44 -19 -49 -24 -6 -5 -16 -9 -24 -9 -7 0 -32 -8 -55 -19 -23 -10 -157 -67
-297 -126 -140 -59 -288 -123 -328 -141 -40 -19 -79 -34 -87 -34 -8 0 -15 -4
-15 -10 0 -5 -5 -10 -11 -10 -13 0 -93 -34 -227 -97 -51 -23 -95 -43 -97 -43
-3 0 -26 -10 -280 -127 -139 -64 -433 -203 -620 -293 -167 -80 -772 -383 -935
-467 -288 -150 -507 -266 -575 -303 -27 -15 -90 -49 -140 -75 -49 -27 -128
-69 -175 -95 -47 -26 -121 -66 -165 -90 -44 -23 -84 -46 -90 -50 -5 -4 -35
-21 -65 -38 -69 -37 -125 -68 -265 -147 -60 -35 -128 -73 -150 -85 -22 -12
-60 -34 -85 -49 -25 -14 -57 -33 -71 -41 -78 -44 -246 -142 -259 -150 -8 -5
-123 -73 -255 -151 -268 -158 -355 -210 -467 -281 -43 -26 -79 -48 -82 -48 -2
0 -169 -104 -372 -231 -203 -127 -378 -237 -389 -243 -11 -7 -54 -34 -95 -61
-145 -94 -296 -191 -380 -245 -111 -72 -804 -535 -945 -633 -60 -41 -145 -99
-188 -129 -173 -118 -621 -437 -900 -640 -286 -209 -870 -648 -887 -668 -3 -3
-23 -19 -45 -35 -22 -17 -42 -32 -45 -35 -3 -3 -33 -28 -67 -54 -35 -27 -63
-53 -63 -58 0 -5 3 -7 8 -5 9 6 187 24 302 31 l85 6 -50 -15 c-27 -8 -95 -26
-150 -39 -225 -55 -271 -67 -292 -76 -22 -9 -22 -10 28 -132 28 -68 60 -143
71 -168 28 -63 200 -406 228 -455 148 -262 238 -411 366 -606 91 -139 258
-381 284 -412 6 -7 45 -59 88 -117 43 -58 86 -114 94 -125 9 -11 53 -66 97
-122 87 -111 97 -122 155 -192 96 -115 256 -301 315 -366 26 -27 71 -76 101
-110 244 -268 640 -656 950 -930 24 -22 51 -46 59 -53 11 -11 15 -52 17 -190
1 -98 4 -195 7 -217 3 -22 9 -69 12 -105 3 -36 8 -72 10 -80 2 -8 7 -35 10
-60 3 -25 10 -70 15 -100 5 -30 11 -68 14 -85 3 -16 10 -57 16 -90 6 -33 15
-80 19 -105 5 -25 14 -75 21 -112 l13 -67 146 4 c160 5 314 13 376 20 22 3 67
7 100 10 104 10 356 45 420 59 6 2 33 7 60 11 58 10 51 9 93 19 28 7 41 2 110
-45 100 -68 113 -79 108 -98 -5 -17 -11 -58 -22 -156 -3 -33 -8 -73 -10 -90
-2 -16 -6 -61 -9 -100 -3 -38 -8 -79 -10 -90 -26 -134 -26 -906 0 -1240 2 -22
7 -94 10 -160 4 -66 9 -142 11 -170 4 -64 4 -565 -1 -670 -16 -369 -22 -476
-30 -575 -3 -30 -7 -89 -10 -130 -3 -41 -8 -95 -10 -120 -2 -25 -7 -77 -10
-115 -3 -39 -7 -80 -10 -93 -2 -12 -7 -55 -10 -95 -3 -39 -8 -83 -10 -97 -2
-14 -6 -50 -10 -80 -9 -84 -15 -128 -26 -210 -15 -110 -17 -121 -24 -165 -3
-22 -8 -56 -10 -75 -4 -35 -14 -97 -21 -135 -2 -11 -7 -40 -10 -65 -3 -25 -8
-48 -10 -51 -1 -3 -6 -28 -10 -55 -3 -27 -8 -51 -9 -54 -2 -3 -6 -25 -10 -48
-5 -35 -41 -208 -71 -342 -31 -140 -86 -320 -134 -440 -21 -53 -54 -180 -64
-251 -28 -191 -24 -492 10 -689 2 -14 9 -54 15 -90 38 -233 137 -546 259 -815
17 -38 32 -72 33 -75 2 -5 66 -123 111 -205 39 -69 178 -287 193 -303 7 -8 18
-23 25 -35 19 -35 146 -195 248 -312 153 -174 338 -354 504 -490 27 -22 54
-45 60 -50 51 -48 379 -279 531 -374 172 -108 499 -282 685 -363 19 -9 60 -27
90 -41 30 -14 91 -40 135 -57 44 -17 94 -38 110 -45 102 -46 492 -178 750
-254 102 -30 416 -109 520 -132 310 -66 605 -121 775 -144 14 -2 39 -6 55 -9
17 -2 55 -8 85 -11 30 -4 64 -9 75 -11 11 -2 40 -6 65 -9 25 -3 59 -7 75 -9
17 -2 62 -7 100 -11 39 -4 78 -9 89 -11 10 -2 53 -6 95 -9 42 -4 87 -8 101
-10 14 -2 63 -7 110 -10 47 -3 110 -7 140 -10 315 -25 890 -35 1210 -20 257
11 315 15 360 19 25 3 77 8 115 11 94 7 181 15 235 21 25 2 65 7 90 9 25 3 59
7 75 9 17 3 68 10 115 16 47 5 96 12 110 14 14 3 47 7 74 11 27 3 52 8 55 9 3
2 29 6 56 10 28 3 75 10 105 16 30 6 69 13 85 16 17 2 37 7 45 9 8 2 35 7 60
10 151 21 580 124 875 210 88 25 496 156 523 167 15 6 32 12 37 14 15 3 177
63 200 73 11 5 85 35 165 67 80 31 163 65 185 75 22 10 105 47 185 82 676 301
1376 724 2000 1211 99 77 393 319 426 351 6 5 38 32 70 60 200 169 361 361
591 705 148 222 423 667 423 686 0 2 11 21 24 42 79 125 404 749 525 1007 33
72 64 130 68 130 5 0 40 -17 78 -36 105 -54 198 -89 323 -120 438 -111 800 -4
1159 342 35 33 82 83 105 112 24 28 48 57 55 65 33 35 167 229 220 317 71 119
162 293 222 426 l43 96 746 -1 c805 0 1307 7 2032 28 108 3 138 1 151 -10 14
-13 18 -12 30 2 17 21 22 256 8 404 -9 101 -46 435 -54 485 -2 17 -16 111 -30
210 -14 99 -33 221 -41 270 -8 50 -17 101 -19 115 -29 194 -97 571 -181 1005
-2 11 -15 81 -30 155 -14 74 -44 218 -66 320 -21 102 -42 196 -44 210 -3 14
-10 45 -15 70 -6 25 -13 56 -15 70 -4 21 -19 90 -39 180 -9 41 -39 174 -55
250 -10 47 -21 92 -24 100 -3 8 -7 27 -10 42 -5 30 -107 464 -156 668 -17 69
-33 135 -36 147 -2 12 -38 156 -80 320 -41 164 -77 306 -79 315 -5 25 -109
414 -177 663 -33 121 -64 235 -69 253 -5 17 -13 47 -18 65 -14 52 -167 583
-200 692 -16 55 -41 141 -56 190 -14 50 -44 148 -66 219 -23 70 -42 136 -44
145 -2 9 -10 36 -18 61 -9 25 -34 106 -57 180 -97 313 -369 1134 -450 1360
-23 63 -48 135 -56 160 -189 551 -680 1816 -864 2224 -10 23 -37 86 -60 141
-23 55 -52 123 -65 150 -13 28 -42 93 -65 145 -201 457 -460 995 -726 1508
-209 402 -412 762 -699 1235 -246 406 -532 823 -919 1336 -58 77 -305 381
-326 401 -3 3 -50 57 -105 120 -162 188 -555 596 -565 587z"/>
</g>
</svg>
